<svg width="174" height="56" viewBox="0 0 174 56" fill="none" xmlns="http://www.w3.org/2000/svg">
<g clip-path="url(#clip0_1_327)">
<path d="M36.0962 44.8821H44.1765V21.3951H36.0962V44.8821ZM46.973 5.41267H41.5276V10.8393H46.973V5.41267ZM16.4312 8.05248H8.62139V14.8638H15.8743C20.4766 14.8638 23.1255 17.087 23.1255 21.2568C23.1255 25.4266 20.4766 27.7881 15.8743 27.7881H8.62139V15.0091H0.541077V44.8821H8.62139V34.5977H16.2924C25.6357 34.5977 31.0759 29.5946 31.0759 20.9785C31.0759 12.9172 25.7762 8.05248 16.4312 8.05248ZM52.4131 0H36.0962V16.252H52.4131V0ZM49.7625 13.4792H38.8857V2.63281H49.7625V13.4792ZM97.1798 8.05248H89.7881V14.8638H96.76C101.362 14.8638 104.013 17.087 104.013 21.2568C104.013 25.4266 101.362 27.7881 96.76 27.7881H89.7881V15.0091H81.7078V44.8821H89.7881V34.5977H97.1798C106.523 34.5977 111.962 29.5946 111.962 20.9785C111.962 12.9172 106.523 8.05248 97.1798 8.05248ZM165.097 16.6704L158.123 34.1758L151.149 16.6704H142.783L153.939 44.8821L149.616 55.5831H158.123L173.463 16.6704H165.097ZM128.837 16.5303C123.955 16.5303 120.189 17.6419 116.005 19.7268L118.517 25.2865C121.445 23.6183 124.374 22.785 127.023 22.785C130.927 22.785 132.881 24.4533 132.881 27.5115V28.0682H125.066C118.092 28.0682 114.328 31.2646 114.328 36.546C114.328 41.6873 117.953 45.2987 124.089 45.2987C127.994 45.2987 130.783 43.9105 133.014 41.5473V44.6037H140.965V26.2598C140.699 20.2835 136.368 16.5303 128.837 16.5303ZM133.58 35.4362C132.744 37.7976 130.372 39.7442 127.024 39.7442C124.237 39.7442 122.563 38.3543 122.563 36.1311C122.563 33.908 124.096 32.9346 127.165 32.9346H133.58V35.4362ZM64.8234 38.7674C60.9185 38.7674 58.1308 35.7093 58.1308 31.1228C58.1308 26.6765 60.9185 23.6183 64.8234 23.6183C67.6129 23.6183 69.705 24.7299 71.2403 26.6765L76.6857 22.785C74.1755 19.0319 69.8526 16.8087 64.4124 16.8087C55.9052 16.6704 50.0488 22.5067 50.0488 31.1228C50.0488 39.739 55.9052 45.4387 64.4124 45.4387C70.2706 45.4387 74.6006 43.0755 76.965 39.1841L71.3861 35.4327C69.9843 37.6559 67.7534 38.7674 64.8234 38.7674Z" fill="#21C25E"/>
</g>
<defs>
<clipPath id="clip0_1_327">
<rect width="173" height="56" fill="white" transform="translate(0.5)"/>
</clipPath>
</defs>
</svg>
