<svg width="48" height="48" viewBox="0 0 48 48" fill="none" xmlns="http://www.w3.org/2000/svg">
<path d="M-6.10352e-05 48L3.37394 35.674C1.29194 32.066 0.197939 27.976 0.199939 23.782C0.205939 10.67 10.8759 0 23.9859 0C30.3479 0.002 36.3199 2.48 40.8119 6.976C45.3019 11.472 47.7739 17.448 47.7719 23.804C47.7659 36.918 37.0959 47.588 23.9859 47.588C20.0059 47.586 16.0839 46.588 12.6099 44.692L-6.10352e-05 48ZM13.1939 40.386C16.5459 42.376 19.7459 43.568 23.9779 43.57C34.8739 43.57 43.7499 34.702 43.7559 23.8C43.7599 12.876 34.9259 4.02 23.9939 4.016C13.0899 4.016 4.21994 12.884 4.21594 23.784C4.21394 28.234 5.51794 31.566 7.70794 35.052L5.70994 42.348L13.1939 40.386ZM35.9679 29.458C35.8199 29.21 35.4239 29.062 34.8279 28.764C34.2339 28.466 31.3119 27.028 30.7659 26.83C30.2219 26.632 29.8259 26.532 29.4279 27.128C29.0319 27.722 27.8919 29.062 27.5459 29.458C27.1999 29.854 26.8519 29.904 26.2579 29.606C25.6639 29.308 23.7479 28.682 21.4779 26.656C19.7119 25.08 18.5179 23.134 18.1719 22.538C17.8259 21.944 18.1359 21.622 18.4319 21.326C18.6999 21.06 19.0259 20.632 19.3239 20.284C19.6259 19.94 19.7239 19.692 19.9239 19.294C20.1219 18.898 20.0239 18.55 19.8739 18.252C19.7239 17.956 18.5359 15.03 18.0419 13.84C17.5579 12.682 17.0679 12.838 16.7039 12.82L15.5639 12.8C15.1679 12.8 14.5239 12.948 13.9799 13.544C13.4359 14.14 11.8999 15.576 11.8999 18.502C11.8999 21.428 14.0299 24.254 14.3259 24.65C14.6239 25.046 18.5159 31.05 24.4779 33.624C25.8959 34.236 27.0039 34.602 27.8659 34.876C29.2899 35.328 30.5859 35.264 31.6099 35.112C32.7519 34.942 35.1259 33.674 35.6219 32.286C36.1179 30.896 36.1179 29.706 35.9679 29.458Z" fill="white"/>
</svg>
