<svg width="24" height="24" viewBox="0 0 24 24" fill="none" xmlns="http://www.w3.org/2000/svg">
<mask id="mask0_1_274" style="mask-type:alpha" maskUnits="userSpaceOnUse" x="3" y="3" width="18" height="17">
<path d="M12 17.275L7.84999 19.775C7.66666 19.8916 7.47499 19.9416 7.27499 19.9249C7.07499 19.9083 6.89999 19.8416 6.74999 19.725C6.59999 19.6083 6.48333 19.4626 6.39999 19.288C6.31666 19.1133 6.29999 18.9173 6.34999 18.7L7.44999 13.975L3.77499 10.8C3.60833 10.65 3.50433 10.479 3.46299 10.287C3.42166 10.095 3.43399 9.90762 3.49999 9.72495C3.56599 9.54228 3.66599 9.39228 3.79999 9.27495C3.93399 9.15762 4.11733 9.08262 4.34999 9.04995L9.19999 8.62495L11.075 4.17495C11.1583 3.97495 11.2877 3.82495 11.463 3.72495C11.6383 3.62495 11.8173 3.57495 12 3.57495C12.1827 3.57495 12.3617 3.62495 12.537 3.72495C12.7123 3.82495 12.8417 3.97495 12.925 4.17495L14.8 8.62495L19.65 9.04995C19.8833 9.08328 20.0667 9.15828 20.2 9.27495C20.3333 9.39162 20.4333 9.54162 20.5 9.72495C20.5667 9.90829 20.5793 10.096 20.538 10.288C20.4967 10.48 20.3923 10.6506 20.225 10.8L16.55 13.975L17.65 18.7C17.7 18.9166 17.6833 19.1126 17.6 19.288C17.5167 19.4633 17.4 19.609 17.25 19.725C17.1 19.841 16.925 19.9076 16.725 19.9249C16.525 19.9423 16.3333 19.8923 16.15 19.775L12 17.275Z" fill="#616161"/>
</mask>
<g mask="url(#mask0_1_274)">
<g filter="url(#filter0_d_1_274)">
<rect x="3.5" y="3" width="12" height="17" fill="white"/>
</g>
</g>
<defs>
<filter id="filter0_d_1_274" x="-2.19636" y="-2.69636" width="25.2915" height="30.2915" filterUnits="userSpaceOnUse" color-interpolation-filters="sRGB">
<feFlood flood-opacity="0" result="BackgroundImageFix"/>
<feColorMatrix in="SourceAlpha" type="matrix" values="0 0 0 0 0 0 0 0 0 0 0 0 0 0 0 0 0 0 127 0" result="hardAlpha"/>
<feOffset dx="0.949393" dy="0.949393"/>
<feGaussianBlur stdDeviation="3.32287"/>
<feComposite in2="hardAlpha" operator="out"/>
<feColorMatrix type="matrix" values="0 0 0 0 1 0 0 0 0 1 0 0 0 0 1 0 0 0 0.45 0"/>
<feBlend mode="normal" in2="BackgroundImageFix" result="effect1_dropShadow_1_274"/>
<feBlend mode="normal" in="SourceGraphic" in2="effect1_dropShadow_1_274" result="shape"/>
</filter>
</defs>
</svg>
