<svg width="34" height="35" viewBox="0 0 34 35" fill="none" xmlns="http://www.w3.org/2000/svg">
<path d="M27.2991 8.05116C25.415 7.17283 23.375 6.53533 21.25 6.16699C21.2126 6.16752 21.177 6.1828 21.1508 6.20949C20.8958 6.67699 20.5983 7.28616 20.4 7.75366C18.146 7.41387 15.8539 7.41387 13.6 7.75366C13.4016 7.27199 13.1041 6.67699 12.835 6.20949C12.8208 6.18116 12.7783 6.16699 12.7358 6.16699C10.6108 6.53533 8.58496 7.17283 6.68663 8.05116C6.67246 8.05116 6.6583 8.06533 6.64413 8.07949C2.7908 13.8453 1.7283 19.4553 2.25246 25.0087C2.25246 25.037 2.26663 25.0653 2.29496 25.0795C4.84496 26.9495 7.2958 28.0828 9.7183 28.8337C9.7608 28.8478 9.8033 28.8337 9.81746 28.8053C10.3841 28.0262 10.8941 27.2045 11.3333 26.3403C11.3616 26.2837 11.3333 26.227 11.2766 26.2128C10.4691 25.9012 9.70413 25.5328 8.9533 25.1078C8.89663 25.0795 8.89663 24.9945 8.93913 24.952C9.09496 24.8387 9.2508 24.7112 9.40663 24.5978C9.43496 24.5695 9.47746 24.5695 9.5058 24.5837C14.3791 26.8078 19.635 26.8078 24.4516 24.5837C24.48 24.5695 24.5225 24.5695 24.5508 24.5978C24.7066 24.7253 24.8625 24.8387 25.0183 24.9662C25.075 25.0087 25.075 25.0937 25.0041 25.122C24.2675 25.5612 23.4883 25.9153 22.6808 26.227C22.6241 26.2412 22.61 26.312 22.6241 26.3545C23.0775 27.2187 23.5875 28.0403 24.14 28.8195C24.1825 28.8337 24.225 28.8478 24.2675 28.8337C26.7041 28.0828 29.155 26.9495 31.705 25.0795C31.7333 25.0653 31.7475 25.037 31.7475 25.0087C32.3708 18.5912 30.7133 13.0237 27.3558 8.07949C27.3416 8.06533 27.3275 8.05116 27.2991 8.05116ZM12.07 21.6228C10.6108 21.6228 9.39246 20.277 9.39246 18.6195C9.39246 16.962 10.5825 15.6162 12.07 15.6162C13.5716 15.6162 14.7616 16.9762 14.7475 18.6195C14.7475 20.277 13.5575 21.6228 12.07 21.6228ZM21.9441 21.6228C20.485 21.6228 19.2666 20.277 19.2666 18.6195C19.2666 16.962 20.4566 15.6162 21.9441 15.6162C23.4458 15.6162 24.6358 16.9762 24.6216 18.6195C24.6216 20.277 23.4458 21.6228 21.9441 21.6228Z" fill="white"/>
</svg>
