<svg width="48" height="48" viewBox="0 0 48 48" fill="none" xmlns="http://www.w3.org/2000/svg">
<g clip-path="url(#clip0_1_357)">
<path d="M23.9999 0C10.7452 0 -6.10352e-05 10.7453 -6.10352e-05 24C-6.10352e-05 35.255 7.74906 44.6995 18.2025 47.2934V31.3344H13.2537V24H18.2025V20.8397C18.2025 12.671 21.8995 8.8848 29.9193 8.8848C31.4399 8.8848 34.0636 9.18336 35.1369 9.48096V16.129C34.5705 16.0694 33.5865 16.0397 32.3644 16.0397C28.4294 16.0397 26.9087 17.5306 26.9087 21.4061V24H34.7481L33.4012 31.3344H26.9087V47.8243C38.7926 46.3891 48.0009 36.2707 48.0009 24C47.9999 10.7453 37.2547 0 23.9999 0Z" fill="white"/>
</g>
<defs>
<clipPath id="clip0_1_357">
<rect width="48" height="48" fill="white"/>
</clipPath>
</defs>
</svg>
