<svg width="48" height="48" viewBox="0 0 48 48" fill="none" xmlns="http://www.w3.org/2000/svg">
<g clip-path="url(#clip0_1_361)">
<path d="M23.9999 4.32187C30.4124 4.32187 31.1718 4.35 33.6937 4.4625C36.0374 4.56562 37.3031 4.95938 38.1468 5.2875C39.2624 5.71875 40.0687 6.24375 40.9031 7.07812C41.7468 7.92188 42.2624 8.71875 42.6937 9.83438C43.0218 10.6781 43.4156 11.9531 43.5187 14.2875C43.6312 16.8187 43.6593 17.5781 43.6593 23.9813C43.6593 30.3938 43.6312 31.1531 43.5187 33.675C43.4156 36.0188 43.0218 37.2844 42.6937 38.1281C42.2624 39.2438 41.7374 40.05 40.9031 40.8844C40.0593 41.7281 39.2624 42.2438 38.1468 42.675C37.3031 43.0031 36.0281 43.3969 33.6937 43.5C31.1624 43.6125 30.4031 43.6406 23.9999 43.6406C17.5874 43.6406 16.8281 43.6125 14.3062 43.5C11.9624 43.3969 10.6968 43.0031 9.85306 42.675C8.73744 42.2438 7.93119 41.7188 7.09681 40.8844C6.25306 40.0406 5.73744 39.2438 5.30619 38.1281C4.97806 37.2844 4.58431 36.0094 4.48119 33.675C4.36869 31.1438 4.34056 30.3844 4.34056 23.9813C4.34056 17.5688 4.36869 16.8094 4.48119 14.2875C4.58431 11.9437 4.97806 10.6781 5.30619 9.83438C5.73744 8.71875 6.26244 7.9125 7.09681 7.07812C7.94056 6.23438 8.73744 5.71875 9.85306 5.2875C10.6968 4.95938 11.9718 4.56562 14.3062 4.4625C16.8281 4.35 17.5874 4.32187 23.9999 4.32187ZM23.9999 0C17.4843 0 16.6687 0.028125 14.1093 0.140625C11.5593 0.253125 9.80619 0.665625 8.28744 1.25625C6.70306 1.875 5.36244 2.69062 4.03119 4.03125C2.69056 5.3625 1.87494 6.70313 1.25619 8.27813C0.665564 9.80625 0.253064 11.55 0.140564 14.1C0.028064 16.6687 -6.10352e-05 17.4844 -6.10352e-05 24C-6.10352e-05 30.5156 0.028064 31.3312 0.140564 33.8906C0.253064 36.4406 0.665564 38.1938 1.25619 39.7125C1.87494 41.2969 2.69056 42.6375 4.03119 43.9688C5.36244 45.3 6.70306 46.125 8.27806 46.7344C9.80619 47.325 11.5499 47.7375 14.0999 47.85C16.6593 47.9625 17.4749 47.9906 23.9906 47.9906C30.5062 47.9906 31.3218 47.9625 33.8812 47.85C36.4312 47.7375 38.1843 47.325 39.7031 46.7344C41.2781 46.125 42.6187 45.3 43.9499 43.9688C45.2812 42.6375 46.1062 41.2969 46.7156 39.7219C47.3062 38.1938 47.7187 36.45 47.8312 33.9C47.9437 31.3406 47.9718 30.525 47.9718 24.0094C47.9718 17.4938 47.9437 16.6781 47.8312 14.1188C47.7187 11.5688 47.3062 9.81563 46.7156 8.29688C46.1249 6.70312 45.3093 5.3625 43.9687 4.03125C42.6374 2.7 41.2968 1.875 39.7218 1.26562C38.1937 0.675 36.4499 0.2625 33.8999 0.15C31.3312 0.028125 30.5156 0 23.9999 0Z" fill="white"/>
<path d="M23.9999 11.6719C17.1937 11.6719 11.6718 17.1938 11.6718 24C11.6718 30.8062 17.1937 36.3281 23.9999 36.3281C30.8062 36.3281 36.3281 30.8062 36.3281 24C36.3281 17.1938 30.8062 11.6719 23.9999 11.6719ZM23.9999 31.9969C19.5843 31.9969 16.0031 28.4156 16.0031 24C16.0031 19.5844 19.5843 16.0031 23.9999 16.0031C28.4156 16.0031 31.9968 19.5844 31.9968 24C31.9968 28.4156 28.4156 31.9969 23.9999 31.9969Z" fill="white"/>
<path d="M39.6937 11.1843C39.6937 12.778 38.3999 14.0624 36.8156 14.0624C35.2218 14.0624 33.9374 12.7687 33.9374 11.1843C33.9374 9.59053 35.2312 8.30615 36.8156 8.30615C38.3999 8.30615 39.6937 9.5999 39.6937 11.1843Z" fill="white"/>
</g>
<defs>
<clipPath id="clip0_1_361">
<rect width="48" height="48" fill="white"/>
</clipPath>
</defs>
</svg>
