<svg width="34" height="35" viewBox="0 0 34 35" fill="none" xmlns="http://www.w3.org/2000/svg">
<path d="M17 3.33301C9.18004 3.33301 2.83337 9.67967 2.83337 17.4997C2.83337 25.3197 9.18004 31.6663 17 31.6663C24.82 31.6663 31.1667 25.3197 31.1667 17.4997C31.1667 9.67967 24.82 3.33301 17 3.33301ZM23.5734 12.9663C23.3609 15.2047 22.44 20.6447 21.9725 23.1522C21.7742 24.2147 21.3775 24.5688 21.0092 24.6113C20.1875 24.6822 19.5642 24.073 18.7709 23.5488C17.5242 22.7272 16.8159 22.2172 15.6117 21.4238C14.2092 20.503 15.1159 19.993 15.9234 19.1713C16.1359 18.9588 19.7625 15.658 19.8334 15.3605C19.8432 15.3154 19.8419 15.2687 19.8296 15.2242C19.8172 15.1798 19.7942 15.139 19.7625 15.1055C19.6775 15.0347 19.5642 15.063 19.465 15.0772C19.3375 15.1055 17.3542 16.423 13.4867 19.0297C12.92 19.4122 12.41 19.6105 11.9567 19.5963C11.4467 19.5822 10.4834 19.313 9.76087 19.0722C8.86837 18.7888 8.17421 18.633 8.23087 18.1372C8.25921 17.8822 8.61337 17.6272 9.27921 17.358C13.4159 15.5588 16.1642 14.3688 17.5384 13.8022C21.4767 12.1588 22.2842 11.8755 22.8225 11.8755C22.9359 11.8755 23.205 11.9038 23.375 12.0455C23.5167 12.1588 23.5592 12.3147 23.5734 12.428C23.5592 12.513 23.5875 12.768 23.5734 12.9663Z" fill="white"/>
</svg>
