<svg width="34" height="35" viewBox="0 0 34 35" fill="none" xmlns="http://www.w3.org/2000/svg">
<g clip-path="url(#clip0_1_462)">
<path d="M17.8401 33.4485L17.8245 33.4513L17.7239 33.5009L17.6956 33.5065L17.6757 33.5009L17.5752 33.4513C17.5601 33.4466 17.5487 33.4489 17.5412 33.4584L17.5355 33.4725L17.5114 34.0789L17.5185 34.1072L17.5327 34.1256L17.68 34.2305L17.7012 34.2361L17.7182 34.2305L17.8656 34.1256L17.8826 34.103L17.8882 34.0789L17.8642 33.474C17.8604 33.4588 17.8524 33.4503 17.8401 33.4485ZM18.2155 33.2884L18.1971 33.2912L17.935 33.423L17.9208 33.4371L17.9166 33.4527L17.9421 34.0619L17.9492 34.0789L17.9605 34.0888L18.2452 34.2205C18.2632 34.2253 18.2769 34.2215 18.2863 34.2092L18.292 34.1894L18.2438 33.3195C18.2391 33.3025 18.2297 33.2922 18.2155 33.2884ZM17.2026 33.2912C17.1963 33.2874 17.1889 33.2862 17.1818 33.2878C17.1746 33.2894 17.1684 33.2936 17.1643 33.2997L17.1558 33.3195L17.1077 34.1894C17.1086 34.2064 17.1166 34.2177 17.1317 34.2234L17.153 34.2205L17.4377 34.0888L17.4519 34.0775L17.4576 34.0619L17.4817 33.4527L17.4774 33.4357L17.4632 33.4215L17.2026 33.2912Z" fill="white"/>
<path d="M6.50817 7.56057C6.76466 7.53076 7.02442 7.57162 7.25937 7.67874C7.49433 7.78585 7.69553 7.95515 7.84125 8.16832C9.93225 11.2269 12.4426 12.4991 15.2292 12.7881C15.3652 11.5967 15.6868 10.4194 16.2917 9.38241C17.1785 7.86091 18.6207 6.74174 20.6805 6.32807C23.528 5.75574 25.6955 6.78707 26.9521 8.04932L29.4908 7.57474C29.7564 7.52496 30.0308 7.55222 30.2814 7.65329C30.5321 7.75436 30.7486 7.92503 30.9054 8.14516C31.0623 8.36528 31.1529 8.62567 31.1665 8.89561C31.1802 9.16554 31.1163 9.43375 30.9825 9.66857L28.5458 13.9497C28.7683 20.1278 27.0513 24.4402 23.3906 27.4109C21.4498 28.9862 18.6703 29.8802 15.6202 30.1564C12.546 30.4341 9.07092 30.0983 5.61708 29.0897C5.32198 29.0036 5.06288 28.8238 4.8789 28.5776C4.69491 28.3313 4.59601 28.0319 4.59713 27.7245C4.59825 27.4171 4.69932 27.1184 4.8851 26.8735C5.07088 26.6286 5.33128 26.4508 5.627 26.3668C7.36383 25.8724 8.687 25.446 9.88125 24.6994C8.18267 23.7984 6.93175 22.6197 6.04633 21.2767C4.81667 19.4096 4.3605 17.3271 4.26983 15.45C4.17917 13.5729 4.44975 11.8332 4.73592 10.5795C4.89883 9.86407 5.08867 9.14724 5.35075 8.46157C5.4432 8.21987 5.60008 8.00811 5.80437 7.84928C6.00866 7.69044 6.25114 7.59059 6.50817 7.56057Z" fill="white"/>
</g>
<defs>
<clipPath id="clip0_1_462">
<rect width="34" height="34" fill="white" transform="translate(0 0.5)"/>
</clipPath>
</defs>
</svg>
