<svg width="34" height="35" viewBox="0 0 34 35" fill="none" xmlns="http://www.w3.org/2000/svg">
<path d="M14.1666 21.7497L21.5191 17.4997L14.1666 13.2497V21.7497ZM30.5433 10.6572C30.7275 11.323 30.855 12.2155 30.94 13.3488C31.0391 14.4822 31.0816 15.4597 31.0816 16.3097L31.1666 17.4997C31.1666 20.6022 30.94 22.883 30.5433 24.3422C30.1891 25.6172 29.3675 26.4388 28.0925 26.793C27.4266 26.9772 26.2083 27.1047 24.3383 27.1897C22.4966 27.2888 20.8108 27.3313 19.2525 27.3313L17 27.4163C11.0641 27.4163 7.36665 27.1897 5.90748 26.793C4.63248 26.4388 3.81081 25.6172 3.45665 24.3422C3.27248 23.6763 3.14498 22.7838 3.05998 21.6505C2.96081 20.5172 2.91831 19.5397 2.91831 18.6897L2.83331 17.4997C2.83331 14.3972 3.05998 12.1163 3.45665 10.6572C3.81081 9.38217 4.63248 8.56051 5.90748 8.20634C6.57331 8.02217 7.79165 7.89467 9.66165 7.80967C11.5033 7.71051 13.1891 7.66801 14.7475 7.66801L17 7.58301C22.9358 7.58301 26.6333 7.80967 28.0925 8.20634C29.3675 8.56051 30.1891 9.38217 30.5433 10.6572Z" fill="white"/>
</svg>
