<svg width="1281" height="400" viewBox="0 0 1281 400" fill="none" xmlns="http://www.w3.org/2000/svg">
<path d="M-158.397 319L-37.8643 82.6836H-25.9093V98.569H-30.1672L-142.348 319H-158.397ZM-110.577 241.047L-104.681 228.437H44.5107L50.5701 241.047H-110.577ZM82.5048 319L-29.6759 98.569V82.6836H-22.1426L98.554 319H82.5048ZM165.371 319L83.3236 82.6836H98.7178L172.413 297.055H172.904L252.987 82.6836H267.071L347.153 297.055H347.481L421.176 82.6836H436.734L354.523 319H340.766L260.192 104.792H259.701L179.128 319H165.371ZM420.357 319L540.89 82.6836H552.845V98.569H548.587L436.406 319H420.357ZM468.177 241.047L474.073 228.437H623.265L629.324 241.047H468.177ZM661.259 319L549.078 98.569V82.6836H556.612L677.308 319H661.259ZM701.546 319V82.6836H836.49C852.539 82.6836 866.35 85.413 877.923 90.872C889.496 96.3309 898.394 104.137 904.617 114.291C910.95 124.444 914.116 136.508 914.116 150.483V150.811C914.116 167.952 909.094 182.418 899.049 194.209C889.005 205.891 874.211 213.425 854.668 216.809L920.175 319H902.816L838.947 218.611C838.182 218.611 837.309 218.665 836.326 218.774C835.453 218.774 834.634 218.774 833.87 218.774H716.285V319H701.546ZM716.285 206H835.835C855.596 206 871.045 201.142 882.181 191.425C893.427 181.599 899.049 168.116 899.049 150.975V150.647C899.049 133.397 893.372 119.913 882.017 110.197C870.772 100.48 855.269 95.6212 835.507 95.6212H716.285V206ZM949.49 319V82.6836H1063.31C1090.6 82.6836 1113.75 87.4328 1132.75 96.9313C1151.74 106.321 1166.26 119.859 1176.31 137.546C1186.35 155.123 1191.37 176.14 1191.37 200.596V200.924C1191.37 225.161 1186.35 246.123 1176.31 263.81C1166.37 281.497 1151.85 295.145 1132.75 304.752C1113.75 314.251 1090.6 319 1063.31 319H949.49ZM964.229 305.899H1062.98C1087.22 305.899 1107.74 301.695 1124.56 293.289C1141.37 284.773 1154.2 272.654 1163.04 256.932C1171.99 241.21 1176.47 222.596 1176.47 201.087V200.76C1176.47 178.815 1172.05 160.036 1163.21 144.424C1154.36 128.811 1141.48 116.802 1124.56 108.395C1107.74 99.9883 1087.22 95.785 1062.98 95.785H964.229V305.899ZM1329.59 322.767C1305.9 322.767 1285.49 320.146 1268.34 314.906C1251.31 309.665 1238.05 302.132 1228.55 292.306C1219.05 282.371 1213.65 270.525 1212.34 256.768L1212.17 254.639H1226.91L1227.24 256.605C1228.55 267.632 1233.41 277.13 1241.81 285.1C1250.22 292.961 1261.85 299.02 1276.7 303.278C1291.55 307.536 1309.4 309.665 1330.25 309.665C1349.14 309.665 1365.19 307.536 1378.4 303.278C1391.61 298.911 1401.71 292.743 1408.69 284.773C1415.68 276.693 1419.17 267.086 1419.17 255.95V255.786C1419.17 241.047 1413.77 230.129 1402.96 223.032C1392.15 215.936 1374.3 210.913 1349.41 207.966L1296.19 202.889C1269.44 199.723 1249.73 193.5 1237.07 184.219C1224.4 174.83 1218.07 161.347 1218.07 143.769V143.441C1218.07 130.34 1222.16 118.985 1230.35 109.378C1238.54 99.77 1250.17 92.2913 1265.23 86.9415C1280.41 81.5918 1298.37 78.9169 1319.11 78.9169C1341.06 78.9169 1360 81.5918 1375.94 86.9415C1391.99 92.2913 1404.6 99.9338 1413.77 109.869C1422.94 119.804 1428.24 131.65 1429.66 145.407L1429.82 147.372H1415.08L1414.75 145.57C1413.22 134.325 1408.53 124.772 1400.67 116.911C1392.81 108.941 1382 102.827 1368.24 98.569C1354.49 94.2019 1338.06 92.0183 1318.95 92.0183C1300.93 92.0183 1285.49 94.1473 1272.6 98.4053C1259.83 102.554 1250 108.45 1243.12 116.092C1236.36 123.735 1232.97 132.742 1232.97 143.114V143.441C1232.97 157.198 1238.32 167.679 1249.02 174.885C1259.72 181.981 1276.59 186.894 1299.62 189.624L1352.85 194.864C1371.95 197.157 1387.46 200.705 1399.36 205.509C1411.26 210.204 1419.99 216.591 1425.56 224.67C1431.24 232.749 1434.08 242.957 1434.08 255.294V255.458C1434.08 269.433 1429.98 281.443 1421.79 291.487C1413.61 301.531 1401.71 309.283 1386.09 314.742C1370.48 320.092 1351.65 322.767 1329.59 322.767Z" fill="white" fill-opacity="0.5"/>
</svg>
